<mxfile host="app.diagrams.net" modified="2023-08-02T10:53:26.733Z" agent="Mozilla/5.0 (Windows NT 10.0; Win64; x64) AppleWebKit/537.36 (KHTML, like Gecko) Chrome/114.0.0.0 Safari/537.36" etag="SANPklxHemdVChqVWs08" version="21.6.6" type="device">
  <diagram name="Page-1" id="h4GeMwYH-yroKZa2HMJ6">
    <mxGraphModel dx="1434" dy="1839" grid="1" gridSize="10" guides="1" tooltips="1" connect="1" arrows="1" fold="1" page="1" pageScale="1" pageWidth="850" pageHeight="1100" math="0" shadow="0">
      <root>
        <mxCell id="0" />
        <mxCell id="1" parent="0" />
        <mxCell id="XrJ-AxaFeGRwnUcX6gHz-3" value="" style="edgeStyle=orthogonalEdgeStyle;rounded=0;orthogonalLoop=1;jettySize=auto;html=1;fontSize=16;" parent="1" source="XrJ-AxaFeGRwnUcX6gHz-1" target="XrJ-AxaFeGRwnUcX6gHz-2" edge="1">
          <mxGeometry relative="1" as="geometry" />
        </mxCell>
        <mxCell id="XrJ-AxaFeGRwnUcX6gHz-1" value="Start" style="ellipse;whiteSpace=wrap;html=1;fontSize=16;" parent="1" vertex="1">
          <mxGeometry x="165" y="70" width="90" height="60" as="geometry" />
        </mxCell>
        <mxCell id="XrJ-AxaFeGRwnUcX6gHz-5" value="" style="edgeStyle=orthogonalEdgeStyle;rounded=0;orthogonalLoop=1;jettySize=auto;html=1;fontSize=16;" parent="1" source="XrJ-AxaFeGRwnUcX6gHz-2" target="XrJ-AxaFeGRwnUcX6gHz-4" edge="1">
          <mxGeometry relative="1" as="geometry" />
        </mxCell>
        <mxCell id="XrJ-AxaFeGRwnUcX6gHz-2" value="Logged in" style="rounded=1;whiteSpace=wrap;html=1;fontSize=16;" parent="1" vertex="1">
          <mxGeometry x="170" y="160" width="80" height="60" as="geometry" />
        </mxCell>
        <mxCell id="XrJ-AxaFeGRwnUcX6gHz-7" value="" style="edgeStyle=orthogonalEdgeStyle;rounded=0;orthogonalLoop=1;jettySize=auto;html=1;fontSize=16;" parent="1" source="XrJ-AxaFeGRwnUcX6gHz-4" target="XrJ-AxaFeGRwnUcX6gHz-6" edge="1">
          <mxGeometry relative="1" as="geometry" />
        </mxCell>
        <mxCell id="XrJ-AxaFeGRwnUcX6gHz-4" value="Go to search" style="whiteSpace=wrap;html=1;rounded=1;fontSize=16;" parent="1" vertex="1">
          <mxGeometry x="170" y="250" width="80" height="60" as="geometry" />
        </mxCell>
        <mxCell id="XrJ-AxaFeGRwnUcX6gHz-9" value="" style="edgeStyle=orthogonalEdgeStyle;rounded=0;orthogonalLoop=1;jettySize=auto;html=1;fontSize=16;" parent="1" source="XrJ-AxaFeGRwnUcX6gHz-6" target="XrJ-AxaFeGRwnUcX6gHz-8" edge="1">
          <mxGeometry relative="1" as="geometry" />
        </mxCell>
        <mxCell id="XrJ-AxaFeGRwnUcX6gHz-6" value="Give job name" style="whiteSpace=wrap;html=1;rounded=1;fontSize=16;" parent="1" vertex="1">
          <mxGeometry x="165" y="340" width="90" height="50" as="geometry" />
        </mxCell>
        <mxCell id="XrJ-AxaFeGRwnUcX6gHz-11" value="" style="edgeStyle=orthogonalEdgeStyle;rounded=0;orthogonalLoop=1;jettySize=auto;html=1;fontSize=16;" parent="1" source="XrJ-AxaFeGRwnUcX6gHz-8" target="XrJ-AxaFeGRwnUcX6gHz-10" edge="1">
          <mxGeometry relative="1" as="geometry" />
        </mxCell>
        <mxCell id="XrJ-AxaFeGRwnUcX6gHz-8" value="Click on job button" style="rounded=1;whiteSpace=wrap;html=1;fontSize=16;" parent="1" vertex="1">
          <mxGeometry x="165" y="450" width="90" height="50" as="geometry" />
        </mxCell>
        <mxCell id="XrJ-AxaFeGRwnUcX6gHz-13" value="" style="edgeStyle=orthogonalEdgeStyle;rounded=0;orthogonalLoop=1;jettySize=auto;html=1;fontSize=16;entryX=0;entryY=0.5;entryDx=0;entryDy=0;" parent="1" source="XrJ-AxaFeGRwnUcX6gHz-10" edge="1" target="XrJ-AxaFeGRwnUcX6gHz-35">
          <mxGeometry relative="1" as="geometry">
            <mxPoint x="460" y="473" as="targetPoint" />
          </mxGeometry>
        </mxCell>
        <mxCell id="XrJ-AxaFeGRwnUcX6gHz-10" value="Date Posted" style="whiteSpace=wrap;html=1;rounded=1;fontSize=16;" parent="1" vertex="1">
          <mxGeometry x="305" y="437.5" width="75" height="75" as="geometry" />
        </mxCell>
        <mxCell id="XrJ-AxaFeGRwnUcX6gHz-54" style="edgeStyle=orthogonalEdgeStyle;rounded=0;orthogonalLoop=1;jettySize=auto;html=1;exitX=1;exitY=0.5;exitDx=0;exitDy=0;entryX=0.075;entryY=0.675;entryDx=0;entryDy=0;entryPerimeter=0;" parent="1" source="XrJ-AxaFeGRwnUcX6gHz-12" target="XrJ-AxaFeGRwnUcX6gHz-50" edge="1">
          <mxGeometry relative="1" as="geometry">
            <Array as="points">
              <mxPoint x="816" y="475" />
            </Array>
          </mxGeometry>
        </mxCell>
        <mxCell id="XrJ-AxaFeGRwnUcX6gHz-12" value="Experience Level" style="whiteSpace=wrap;html=1;rounded=1;fontSize=16;" parent="1" vertex="1">
          <mxGeometry x="600" y="445" width="100" height="60" as="geometry" />
        </mxCell>
        <mxCell id="XrJ-AxaFeGRwnUcX6gHz-16" value="Choose from dropdown any one of option" style="shape=tape;whiteSpace=wrap;html=1;fontSize=16;size=0.2;" parent="1" vertex="1">
          <mxGeometry x="290" y="320" width="120" height="100" as="geometry" />
        </mxCell>
        <mxCell id="XrJ-AxaFeGRwnUcX6gHz-17" value="Choose experience level(s) from dropdown" style="shape=tape;whiteSpace=wrap;html=1;fontSize=16;size=0.2;" parent="1" vertex="1">
          <mxGeometry x="445" y="550" width="125" height="100" as="geometry" />
        </mxCell>
        <mxCell id="XrJ-AxaFeGRwnUcX6gHz-18" value="Choose or type company name" style="shape=tape;whiteSpace=wrap;html=1;fontSize=16;size=0.3;" parent="1" vertex="1">
          <mxGeometry x="940" y="330" width="120" height="100" as="geometry" />
        </mxCell>
        <mxCell id="XrJ-AxaFeGRwnUcX6gHz-49" style="edgeStyle=orthogonalEdgeStyle;rounded=0;orthogonalLoop=1;jettySize=auto;html=1;exitX=0.5;exitY=1;exitDx=0;exitDy=0;entryX=0.5;entryY=0;entryDx=0;entryDy=0;" parent="1" source="XrJ-AxaFeGRwnUcX6gHz-26" target="XrJ-AxaFeGRwnUcX6gHz-33" edge="1">
          <mxGeometry relative="1" as="geometry" />
        </mxCell>
        <mxCell id="XrJ-AxaFeGRwnUcX6gHz-26" value="Set Job Alert" style="whiteSpace=wrap;html=1;rounded=1;fontSize=16;" parent="1" vertex="1">
          <mxGeometry x="1130" y="362.5" width="100" height="35" as="geometry" />
        </mxCell>
        <mxCell id="XrJ-AxaFeGRwnUcX6gHz-29" value="Choose job specification&amp;nbsp;" style="shape=tape;whiteSpace=wrap;html=1;size=0.2;fontSize=16;" parent="1" vertex="1">
          <mxGeometry x="920" y="110" width="120" height="100" as="geometry" />
        </mxCell>
        <mxCell id="XrJ-AxaFeGRwnUcX6gHz-30" value="Choose job location&amp;nbsp;" style="shape=tape;whiteSpace=wrap;html=1;size=0.2222222222222222;fontSize=16;" parent="1" vertex="1">
          <mxGeometry x="620" y="20" width="120" height="90" as="geometry" />
        </mxCell>
        <mxCell id="XrJ-AxaFeGRwnUcX6gHz-33" value="&lt;font style=&quot;font-size: 16px;&quot;&gt;End&lt;/font&gt;" style="ellipse;whiteSpace=wrap;html=1;" parent="1" vertex="1">
          <mxGeometry x="1140" y="435" width="80" height="70" as="geometry" />
        </mxCell>
        <mxCell id="XrJ-AxaFeGRwnUcX6gHz-36" style="edgeStyle=orthogonalEdgeStyle;rounded=0;orthogonalLoop=1;jettySize=auto;html=1;exitX=1;exitY=0.5;exitDx=0;exitDy=0;entryX=0;entryY=0.5;entryDx=0;entryDy=0;" parent="1" source="XrJ-AxaFeGRwnUcX6gHz-35" target="XrJ-AxaFeGRwnUcX6gHz-12" edge="1">
          <mxGeometry relative="1" as="geometry" />
        </mxCell>
        <mxCell id="H7vkJgQddg3u0QaJbEHA-53" style="edgeStyle=orthogonalEdgeStyle;rounded=0;orthogonalLoop=1;jettySize=auto;html=1;exitX=0.5;exitY=1;exitDx=0;exitDy=0;entryX=0.5;entryY=1;entryDx=0;entryDy=0;" edge="1" parent="1" source="XrJ-AxaFeGRwnUcX6gHz-35" target="XrJ-AxaFeGRwnUcX6gHz-50">
          <mxGeometry relative="1" as="geometry">
            <Array as="points">
              <mxPoint x="500" y="530" />
              <mxPoint x="850" y="530" />
            </Array>
          </mxGeometry>
        </mxCell>
        <mxCell id="XrJ-AxaFeGRwnUcX6gHz-35" value="Experience Level" style="rhombus;whiteSpace=wrap;html=1;" parent="1" vertex="1">
          <mxGeometry x="460" y="435" width="80" height="80" as="geometry" />
        </mxCell>
        <mxCell id="XrJ-AxaFeGRwnUcX6gHz-41" value="" style="edgeStyle=orthogonalEdgeStyle;rounded=0;orthogonalLoop=1;jettySize=auto;html=1;" parent="1" source="XrJ-AxaFeGRwnUcX6gHz-39" target="XrJ-AxaFeGRwnUcX6gHz-40" edge="1">
          <mxGeometry relative="1" as="geometry" />
        </mxCell>
        <mxCell id="H7vkJgQddg3u0QaJbEHA-8" style="edgeStyle=orthogonalEdgeStyle;rounded=0;orthogonalLoop=1;jettySize=auto;html=1;exitX=0;exitY=0.5;exitDx=0;exitDy=0;entryX=0;entryY=0.5;entryDx=0;entryDy=0;" edge="1" parent="1" source="XrJ-AxaFeGRwnUcX6gHz-39" target="XrJ-AxaFeGRwnUcX6gHz-42">
          <mxGeometry relative="1" as="geometry">
            <Array as="points">
              <mxPoint x="760" y="265" />
              <mxPoint x="760" y="50" />
            </Array>
          </mxGeometry>
        </mxCell>
        <mxCell id="XrJ-AxaFeGRwnUcX6gHz-39" value="Job Type" style="rhombus;whiteSpace=wrap;html=1;" parent="1" vertex="1">
          <mxGeometry x="810" y="225" width="80" height="80" as="geometry" />
        </mxCell>
        <mxCell id="XrJ-AxaFeGRwnUcX6gHz-43" value="" style="edgeStyle=orthogonalEdgeStyle;rounded=0;orthogonalLoop=1;jettySize=auto;html=1;" parent="1" source="XrJ-AxaFeGRwnUcX6gHz-40" target="XrJ-AxaFeGRwnUcX6gHz-42" edge="1">
          <mxGeometry relative="1" as="geometry" />
        </mxCell>
        <mxCell id="XrJ-AxaFeGRwnUcX6gHz-40" value="Specify Job Type" style="rounded=1;whiteSpace=wrap;html=1;" parent="1" vertex="1">
          <mxGeometry x="790" y="130" width="120" height="60" as="geometry" />
        </mxCell>
        <mxCell id="XrJ-AxaFeGRwnUcX6gHz-45" value="" style="edgeStyle=orthogonalEdgeStyle;rounded=0;orthogonalLoop=1;jettySize=auto;html=1;" parent="1" source="XrJ-AxaFeGRwnUcX6gHz-42" target="XrJ-AxaFeGRwnUcX6gHz-44" edge="1">
          <mxGeometry relative="1" as="geometry" />
        </mxCell>
        <mxCell id="H7vkJgQddg3u0QaJbEHA-35" style="edgeStyle=orthogonalEdgeStyle;rounded=0;orthogonalLoop=1;jettySize=auto;html=1;exitX=0.5;exitY=0;exitDx=0;exitDy=0;entryX=1;entryY=0.5;entryDx=0;entryDy=0;" edge="1" parent="1" source="XrJ-AxaFeGRwnUcX6gHz-42" target="H7vkJgQddg3u0QaJbEHA-43">
          <mxGeometry relative="1" as="geometry">
            <Array as="points">
              <mxPoint x="850" y="-10" />
              <mxPoint x="1250" y="-10" />
              <mxPoint x="1250" y="170" />
            </Array>
          </mxGeometry>
        </mxCell>
        <mxCell id="XrJ-AxaFeGRwnUcX6gHz-42" value="Job location" style="rhombus;whiteSpace=wrap;html=1;rounded=1;" parent="1" vertex="1">
          <mxGeometry x="810" y="10" width="80" height="80" as="geometry" />
        </mxCell>
        <mxCell id="XrJ-AxaFeGRwnUcX6gHz-47" value="" style="edgeStyle=orthogonalEdgeStyle;rounded=0;orthogonalLoop=1;jettySize=auto;html=1;entryX=0.5;entryY=0;entryDx=0;entryDy=0;" parent="1" source="XrJ-AxaFeGRwnUcX6gHz-44" target="H7vkJgQddg3u0QaJbEHA-43" edge="1">
          <mxGeometry relative="1" as="geometry" />
        </mxCell>
        <mxCell id="XrJ-AxaFeGRwnUcX6gHz-44" value="Specify Location" style="whiteSpace=wrap;html=1;rounded=1;" parent="1" vertex="1">
          <mxGeometry x="1120" y="20" width="120" height="60" as="geometry" />
        </mxCell>
        <mxCell id="XrJ-AxaFeGRwnUcX6gHz-48" style="edgeStyle=orthogonalEdgeStyle;rounded=0;orthogonalLoop=1;jettySize=auto;html=1;exitX=0.5;exitY=1;exitDx=0;exitDy=0;entryX=0.5;entryY=0;entryDx=0;entryDy=0;" parent="1" source="XrJ-AxaFeGRwnUcX6gHz-46" target="XrJ-AxaFeGRwnUcX6gHz-26" edge="1">
          <mxGeometry relative="1" as="geometry" />
        </mxCell>
        <mxCell id="XrJ-AxaFeGRwnUcX6gHz-46" value="Easy Apply" style="whiteSpace=wrap;html=1;rounded=1;" parent="1" vertex="1">
          <mxGeometry x="1130" y="270" width="100" height="50" as="geometry" />
        </mxCell>
        <mxCell id="XrJ-AxaFeGRwnUcX6gHz-52" style="edgeStyle=orthogonalEdgeStyle;rounded=0;orthogonalLoop=1;jettySize=auto;html=1;exitX=0.5;exitY=0;exitDx=0;exitDy=0;entryX=0.5;entryY=1;entryDx=0;entryDy=0;" parent="1" source="XrJ-AxaFeGRwnUcX6gHz-50" target="XrJ-AxaFeGRwnUcX6gHz-51" edge="1">
          <mxGeometry relative="1" as="geometry" />
        </mxCell>
        <mxCell id="H7vkJgQddg3u0QaJbEHA-24" style="edgeStyle=orthogonalEdgeStyle;rounded=0;orthogonalLoop=1;jettySize=auto;html=1;exitX=1;exitY=0.5;exitDx=0;exitDy=0;entryX=1;entryY=0.5;entryDx=0;entryDy=0;" edge="1" parent="1" source="XrJ-AxaFeGRwnUcX6gHz-50" target="XrJ-AxaFeGRwnUcX6gHz-39">
          <mxGeometry relative="1" as="geometry">
            <Array as="points">
              <mxPoint x="920" y="470" />
              <mxPoint x="920" y="265" />
            </Array>
          </mxGeometry>
        </mxCell>
        <mxCell id="XrJ-AxaFeGRwnUcX6gHz-50" value="Specify Company" style="rhombus;whiteSpace=wrap;html=1;" parent="1" vertex="1">
          <mxGeometry x="810" y="435" width="80" height="80" as="geometry" />
        </mxCell>
        <mxCell id="XrJ-AxaFeGRwnUcX6gHz-53" style="edgeStyle=orthogonalEdgeStyle;rounded=0;orthogonalLoop=1;jettySize=auto;html=1;" parent="1" source="XrJ-AxaFeGRwnUcX6gHz-51" target="XrJ-AxaFeGRwnUcX6gHz-39" edge="1">
          <mxGeometry relative="1" as="geometry" />
        </mxCell>
        <mxCell id="XrJ-AxaFeGRwnUcX6gHz-51" value="Specified Company(ies)" style="rounded=1;whiteSpace=wrap;html=1;" parent="1" vertex="1">
          <mxGeometry x="790" y="350" width="120" height="40" as="geometry" />
        </mxCell>
        <mxCell id="H7vkJgQddg3u0QaJbEHA-1" value="Job Location&lt;br&gt;Options:&lt;br&gt;&lt;div style=&quot;text-align: justify;&quot;&gt;&lt;span style=&quot;background-color: initial;&quot;&gt;1. Onsite&lt;/span&gt;&lt;/div&gt;&lt;div style=&quot;text-align: justify;&quot;&gt;&lt;span style=&quot;background-color: initial;&quot;&gt;2. Hybrid&lt;/span&gt;&lt;/div&gt;&lt;div style=&quot;text-align: justify;&quot;&gt;&lt;span style=&quot;background-color: initial;&quot;&gt;3. Remote&lt;/span&gt;&lt;/div&gt;" style="whiteSpace=wrap;html=1;aspect=fixed;" vertex="1" parent="1">
          <mxGeometry x="1380" y="40" width="80" height="80" as="geometry" />
        </mxCell>
        <mxCell id="H7vkJgQddg3u0QaJbEHA-2" value="Job Location&lt;br&gt;Options:&lt;br&gt;&lt;div style=&quot;text-align: justify;&quot;&gt;&lt;span style=&quot;background-color: initial;&quot;&gt;1. Onsite&lt;/span&gt;&lt;/div&gt;&lt;div style=&quot;text-align: justify;&quot;&gt;&lt;span style=&quot;background-color: initial;&quot;&gt;2. Hybrid&lt;/span&gt;&lt;/div&gt;&lt;div style=&quot;text-align: justify;&quot;&gt;&lt;span style=&quot;background-color: initial;&quot;&gt;3. Remote&lt;/span&gt;&lt;/div&gt;" style="whiteSpace=wrap;html=1;aspect=fixed;" vertex="1" parent="1">
          <mxGeometry x="1380" y="40" width="80" height="80" as="geometry" />
        </mxCell>
        <mxCell id="H7vkJgQddg3u0QaJbEHA-3" value="Job Type&lt;br&gt;Options:&lt;br&gt;&lt;div style=&quot;text-align: justify;&quot;&gt;&lt;span style=&quot;background-color: initial;&quot;&gt;1. Full Time&lt;/span&gt;&lt;/div&gt;&lt;div style=&quot;text-align: justify;&quot;&gt;&lt;span style=&quot;background-color: initial;&quot;&gt;2. Part Time&lt;/span&gt;&lt;/div&gt;" style="whiteSpace=wrap;html=1;aspect=fixed;" vertex="1" parent="1">
          <mxGeometry x="1380" y="140" width="80" height="80" as="geometry" />
        </mxCell>
        <mxCell id="H7vkJgQddg3u0QaJbEHA-9" value="Experience Level Options:&lt;br&gt;&lt;div style=&quot;text-align: justify;&quot;&gt;&lt;span style=&quot;background-color: initial;&quot;&gt;1. Entry&lt;/span&gt;&lt;/div&gt;&lt;div style=&quot;text-align: justify;&quot;&gt;&lt;span style=&quot;background-color: initial;&quot;&gt;2. Internship&lt;/span&gt;&lt;/div&gt;&lt;div style=&quot;text-align: justify;&quot;&gt;&lt;span style=&quot;background-color: initial;&quot;&gt;3. Associate&lt;/span&gt;&lt;/div&gt;&lt;div style=&quot;text-align: justify;&quot;&gt;&lt;span style=&quot;background-color: initial;&quot;&gt;4. MId- senior&lt;/span&gt;&lt;/div&gt;&lt;div style=&quot;text-align: justify;&quot;&gt;&lt;span style=&quot;background-color: initial;&quot;&gt;5. Execuetive&lt;/span&gt;&lt;/div&gt;&lt;div style=&quot;text-align: justify;&quot;&gt;&lt;span style=&quot;background-color: initial;&quot;&gt;6. Director&lt;/span&gt;&lt;/div&gt;&lt;div style=&quot;text-align: justify;&quot;&gt;&lt;span style=&quot;background-color: initial;&quot;&gt;&lt;br&gt;&lt;/span&gt;&lt;/div&gt;" style="whiteSpace=wrap;html=1;aspect=fixed;" vertex="1" parent="1">
          <mxGeometry x="1380" y="240" width="140" height="140" as="geometry" />
        </mxCell>
        <mxCell id="H7vkJgQddg3u0QaJbEHA-11" value="&lt;div style=&quot;text-align: center;&quot;&gt;&lt;span style=&quot;background-color: initial;&quot;&gt;Date Posted&amp;nbsp;&lt;/span&gt;&lt;/div&gt;&lt;div style=&quot;text-align: center;&quot;&gt;&lt;span style=&quot;background-color: initial;&quot;&gt;Options:&lt;/span&gt;&lt;/div&gt;&lt;div style=&quot;text-align: justify;&quot;&gt;&lt;span style=&quot;background-color: initial;&quot;&gt;1. Anytime&lt;/span&gt;&lt;/div&gt;&lt;div style=&quot;text-align: justify;&quot;&gt;&lt;span style=&quot;background-color: initial;&quot;&gt;2. Past Month&amp;nbsp;&lt;/span&gt;&lt;/div&gt;&lt;div style=&quot;text-align: justify;&quot;&gt;&lt;span style=&quot;background-color: initial;&quot;&gt;3. Past Week&lt;/span&gt;&lt;/div&gt;&lt;div style=&quot;text-align: justify;&quot;&gt;&lt;span style=&quot;background-color: initial;&quot;&gt;4. Last 24 hours&lt;/span&gt;&lt;/div&gt;" style="whiteSpace=wrap;html=1;aspect=fixed;align=left;" vertex="1" parent="1">
          <mxGeometry x="1380" y="397.5" width="120" height="120" as="geometry" />
        </mxCell>
        <mxCell id="H7vkJgQddg3u0QaJbEHA-13" value="1" style="text;html=1;align=center;verticalAlign=middle;resizable=0;points=[];autosize=1;strokeColor=none;fillColor=none;" vertex="1" parent="1">
          <mxGeometry x="215" y="128" width="30" height="30" as="geometry" />
        </mxCell>
        <mxCell id="H7vkJgQddg3u0QaJbEHA-14" value="2" style="text;html=1;align=center;verticalAlign=middle;resizable=0;points=[];autosize=1;strokeColor=none;fillColor=none;" vertex="1" parent="1">
          <mxGeometry x="215" y="220" width="30" height="30" as="geometry" />
        </mxCell>
        <mxCell id="H7vkJgQddg3u0QaJbEHA-15" value="3" style="text;html=1;align=center;verticalAlign=middle;resizable=0;points=[];autosize=1;strokeColor=none;fillColor=none;" vertex="1" parent="1">
          <mxGeometry x="215" y="305" width="30" height="30" as="geometry" />
        </mxCell>
        <mxCell id="H7vkJgQddg3u0QaJbEHA-16" value="4" style="text;html=1;align=center;verticalAlign=middle;resizable=0;points=[];autosize=1;strokeColor=none;fillColor=none;" vertex="1" parent="1">
          <mxGeometry x="215" y="400" width="30" height="30" as="geometry" />
        </mxCell>
        <mxCell id="H7vkJgQddg3u0QaJbEHA-17" value="5" style="text;html=1;align=center;verticalAlign=middle;resizable=0;points=[];autosize=1;strokeColor=none;fillColor=none;" vertex="1" parent="1">
          <mxGeometry x="275" y="438" width="30" height="30" as="geometry" />
        </mxCell>
        <mxCell id="H7vkJgQddg3u0QaJbEHA-18" value="6" style="text;html=1;align=center;verticalAlign=middle;resizable=0;points=[];autosize=1;strokeColor=none;fillColor=none;" vertex="1" parent="1">
          <mxGeometry x="405" y="448" width="30" height="30" as="geometry" />
        </mxCell>
        <mxCell id="H7vkJgQddg3u0QaJbEHA-19" value="YES" style="text;html=1;align=center;verticalAlign=middle;resizable=0;points=[];autosize=1;strokeColor=none;fillColor=none;" vertex="1" parent="1">
          <mxGeometry x="525" y="448" width="50" height="30" as="geometry" />
        </mxCell>
        <mxCell id="H7vkJgQddg3u0QaJbEHA-20" value="NO" style="text;html=1;align=center;verticalAlign=middle;resizable=0;points=[];autosize=1;strokeColor=none;fillColor=none;" vertex="1" parent="1">
          <mxGeometry x="620" y="528" width="40" height="30" as="geometry" />
        </mxCell>
        <mxCell id="H7vkJgQddg3u0QaJbEHA-21" value="7" style="text;html=1;align=center;verticalAlign=middle;resizable=0;points=[];autosize=1;strokeColor=none;fillColor=none;" vertex="1" parent="1">
          <mxGeometry x="535" y="418" width="30" height="30" as="geometry" />
        </mxCell>
        <mxCell id="H7vkJgQddg3u0QaJbEHA-22" value="8" style="text;html=1;align=center;verticalAlign=middle;resizable=0;points=[];autosize=1;strokeColor=none;fillColor=none;" vertex="1" parent="1">
          <mxGeometry x="685" y="528" width="30" height="30" as="geometry" />
        </mxCell>
        <mxCell id="H7vkJgQddg3u0QaJbEHA-23" value="9" style="text;html=1;align=center;verticalAlign=middle;resizable=0;points=[];autosize=1;strokeColor=none;fillColor=none;" vertex="1" parent="1">
          <mxGeometry x="730" y="445" width="30" height="30" as="geometry" />
        </mxCell>
        <mxCell id="H7vkJgQddg3u0QaJbEHA-25" value="YES" style="text;html=1;align=center;verticalAlign=middle;resizable=0;points=[];autosize=1;strokeColor=none;fillColor=none;" vertex="1" parent="1">
          <mxGeometry x="805" y="398" width="50" height="30" as="geometry" />
        </mxCell>
        <mxCell id="H7vkJgQddg3u0QaJbEHA-26" value="NO" style="text;html=1;align=center;verticalAlign=middle;resizable=0;points=[];autosize=1;strokeColor=none;fillColor=none;" vertex="1" parent="1">
          <mxGeometry x="880" y="475" width="40" height="30" as="geometry" />
        </mxCell>
        <mxCell id="H7vkJgQddg3u0QaJbEHA-27" value="10" style="text;html=1;align=center;verticalAlign=middle;resizable=0;points=[];autosize=1;strokeColor=none;fillColor=none;" vertex="1" parent="1">
          <mxGeometry x="850" y="400" width="40" height="30" as="geometry" />
        </mxCell>
        <mxCell id="H7vkJgQddg3u0QaJbEHA-28" value="11" style="text;html=1;align=center;verticalAlign=middle;resizable=0;points=[];autosize=1;strokeColor=none;fillColor=none;" vertex="1" parent="1">
          <mxGeometry x="915" y="438" width="40" height="30" as="geometry" />
        </mxCell>
        <mxCell id="H7vkJgQddg3u0QaJbEHA-29" value="12" style="text;html=1;align=center;verticalAlign=middle;resizable=0;points=[];autosize=1;strokeColor=none;fillColor=none;" vertex="1" parent="1">
          <mxGeometry x="845" y="310" width="40" height="30" as="geometry" />
        </mxCell>
        <mxCell id="H7vkJgQddg3u0QaJbEHA-30" value="YES" style="text;html=1;align=center;verticalAlign=middle;resizable=0;points=[];autosize=1;strokeColor=none;fillColor=none;" vertex="1" parent="1">
          <mxGeometry x="845" y="198" width="50" height="30" as="geometry" />
        </mxCell>
        <mxCell id="H7vkJgQddg3u0QaJbEHA-31" value="NO" style="text;html=1;align=center;verticalAlign=middle;resizable=0;points=[];autosize=1;strokeColor=none;fillColor=none;" vertex="1" parent="1">
          <mxGeometry x="770" y="268" width="40" height="30" as="geometry" />
        </mxCell>
        <mxCell id="H7vkJgQddg3u0QaJbEHA-32" value="13" style="text;html=1;align=center;verticalAlign=middle;resizable=0;points=[];autosize=1;strokeColor=none;fillColor=none;" vertex="1" parent="1">
          <mxGeometry x="820" y="198" width="40" height="30" as="geometry" />
        </mxCell>
        <mxCell id="H7vkJgQddg3u0QaJbEHA-33" value="14" style="text;html=1;align=center;verticalAlign=middle;resizable=0;points=[];autosize=1;strokeColor=none;fillColor=none;" vertex="1" parent="1">
          <mxGeometry x="760" y="228" width="40" height="30" as="geometry" />
        </mxCell>
        <mxCell id="H7vkJgQddg3u0QaJbEHA-34" value="15" style="text;html=1;align=center;verticalAlign=middle;resizable=0;points=[];autosize=1;strokeColor=none;fillColor=none;" vertex="1" parent="1">
          <mxGeometry x="850" y="88" width="40" height="30" as="geometry" />
        </mxCell>
        <mxCell id="H7vkJgQddg3u0QaJbEHA-36" value="YES" style="text;html=1;align=center;verticalAlign=middle;resizable=0;points=[];autosize=1;strokeColor=none;fillColor=none;" vertex="1" parent="1">
          <mxGeometry x="955" y="18" width="50" height="30" as="geometry" />
        </mxCell>
        <mxCell id="H7vkJgQddg3u0QaJbEHA-37" value="NO" style="text;html=1;align=center;verticalAlign=middle;resizable=0;points=[];autosize=1;strokeColor=none;fillColor=none;" vertex="1" parent="1">
          <mxGeometry x="940" y="-52" width="40" height="30" as="geometry" />
        </mxCell>
        <mxCell id="H7vkJgQddg3u0QaJbEHA-38" value="16" style="text;html=1;align=center;verticalAlign=middle;resizable=0;points=[];autosize=1;strokeColor=none;fillColor=none;" vertex="1" parent="1">
          <mxGeometry x="920" y="18" width="40" height="30" as="geometry" />
        </mxCell>
        <mxCell id="H7vkJgQddg3u0QaJbEHA-39" value="17" style="text;html=1;align=center;verticalAlign=middle;resizable=0;points=[];autosize=1;strokeColor=none;fillColor=none;" vertex="1" parent="1">
          <mxGeometry x="900" y="-42" width="40" height="30" as="geometry" />
        </mxCell>
        <mxCell id="H7vkJgQddg3u0QaJbEHA-40" value="18" style="text;html=1;align=center;verticalAlign=middle;resizable=0;points=[];autosize=1;strokeColor=none;fillColor=none;" vertex="1" parent="1">
          <mxGeometry x="1180" y="108" width="40" height="30" as="geometry" />
        </mxCell>
        <mxCell id="H7vkJgQddg3u0QaJbEHA-41" value="20" style="text;html=1;align=center;verticalAlign=middle;resizable=0;points=[];autosize=1;strokeColor=none;fillColor=none;" vertex="1" parent="1">
          <mxGeometry x="1170" y="225" width="40" height="30" as="geometry" />
        </mxCell>
        <mxCell id="H7vkJgQddg3u0QaJbEHA-42" value="22" style="text;html=1;align=center;verticalAlign=middle;resizable=0;points=[];autosize=1;strokeColor=none;fillColor=none;" vertex="1" parent="1">
          <mxGeometry x="1190" y="408" width="40" height="30" as="geometry" />
        </mxCell>
        <mxCell id="H7vkJgQddg3u0QaJbEHA-44" style="edgeStyle=orthogonalEdgeStyle;rounded=0;orthogonalLoop=1;jettySize=auto;html=1;exitX=0.5;exitY=1;exitDx=0;exitDy=0;entryX=0.5;entryY=0;entryDx=0;entryDy=0;" edge="1" parent="1" source="H7vkJgQddg3u0QaJbEHA-43" target="XrJ-AxaFeGRwnUcX6gHz-46">
          <mxGeometry relative="1" as="geometry" />
        </mxCell>
        <mxCell id="H7vkJgQddg3u0QaJbEHA-45" style="edgeStyle=orthogonalEdgeStyle;rounded=0;orthogonalLoop=1;jettySize=auto;html=1;exitX=0;exitY=0.5;exitDx=0;exitDy=0;entryX=0;entryY=0.5;entryDx=0;entryDy=0;" edge="1" parent="1" source="H7vkJgQddg3u0QaJbEHA-43" target="XrJ-AxaFeGRwnUcX6gHz-26">
          <mxGeometry relative="1" as="geometry" />
        </mxCell>
        <mxCell id="H7vkJgQddg3u0QaJbEHA-43" value="Easy Apply" style="rhombus;whiteSpace=wrap;html=1;" vertex="1" parent="1">
          <mxGeometry x="1140" y="130" width="80" height="80" as="geometry" />
        </mxCell>
        <mxCell id="H7vkJgQddg3u0QaJbEHA-46" value="19" style="text;html=1;align=center;verticalAlign=middle;resizable=0;points=[];autosize=1;strokeColor=none;fillColor=none;" vertex="1" parent="1">
          <mxGeometry x="1110" y="228" width="40" height="30" as="geometry" />
        </mxCell>
        <mxCell id="H7vkJgQddg3u0QaJbEHA-47" value="21" style="text;html=1;align=center;verticalAlign=middle;resizable=0;points=[];autosize=1;strokeColor=none;fillColor=none;" vertex="1" parent="1">
          <mxGeometry x="1180" y="318" width="40" height="30" as="geometry" />
        </mxCell>
        <mxCell id="H7vkJgQddg3u0QaJbEHA-48" value="YES" style="text;html=1;align=center;verticalAlign=middle;resizable=0;points=[];autosize=1;strokeColor=none;fillColor=none;" vertex="1" parent="1">
          <mxGeometry x="1185" y="210" width="50" height="30" as="geometry" />
        </mxCell>
        <mxCell id="H7vkJgQddg3u0QaJbEHA-49" value="NO" style="text;html=1;align=center;verticalAlign=middle;resizable=0;points=[];autosize=1;strokeColor=none;fillColor=none;" vertex="1" parent="1">
          <mxGeometry x="1080" y="208" width="40" height="30" as="geometry" />
        </mxCell>
      </root>
    </mxGraphModel>
  </diagram>
</mxfile>
